<?xml version="1.0" encoding="utf-8"?>
<!-- Generator: Adobe Illustrator 26.3.1, SVG Export Plug-In . SVG Version: 6.00 Build 0)  -->
<svg version="1.1" id="Layer_1" xmlns="http://www.w3.org/2000/svg" xmlns:xlink="http://www.w3.org/1999/xlink" x="0px" y="0px"
	 viewBox="0 0 500 500" style="enable-background:new 0 0 500 500;" xml:space="preserve">
<style type="text/css">
	.st0{fill:#FF5757;}
</style>
<g>
	<g transform="translate(107.138244, 195.541622)">
		<g>
			<path class="st0" d="M125.1,20.4c-2.2-3.7-3.9-5.2-6.2-7.5c-8.4-6.7-18.5-9-27.5-10.5c-3.9-0.7-7.3-1.5-12.9-2.2
				c1.7-6.7,2.2-11.2,3.4-15.7c2.8-9.7,5.6-19.5,7.9-29.9c7.9-32.2,16.3-64.4,23.6-96.6l6.7-25.5c0.6-2.3,0.6-6,0.6-8.2
				c0-6.8-6.7-17.2-12.3-19.5c-2.8-0.7-5.6,0-7.9,3c-2.2,3.7-3.9,6-6.2,9c-3.9,0-8.4,0.7-11.8,0.7H61.1c-11.8,0-25.2,3-41.5,3
				c-5-0.8-34.2,3.7-40.4,3c-7.9,2.2-17.4,9.7-25.2,11.2c-1.7,0-2.8,1.5-4.5,0.7c-5-0.7-9.5,2.2-14,4.5c-6.2,3.7-12.9,7.5-20.2,6.7
				c-1.1,0-3.4,1.5-5.1,3c-2.8,3.7-5,7.5-7.9,10.5c-5.6,6.7-8.4,15.7-9,26.9c-1.1,18.7,4.5,35.9,13.5,51.7c1.1,2.2,3.9,3.7,6.2,5.2
				c3.4,1.5,5.6,3,8.4,4.5c5.6,2.2,11.2,5.2,16.8,6c6.7,0.8,12.9-1.5,17.9-3.7c5.1-1.5,9-2.2,13.5-1.5c2.2,0.7,3.9,0.7,5,0
				c5-3.7,10.7-4.5,16.8-6.7c1.1,0,1.1-0.8,2.2-3c-10.1,0-19.6-0.7-29.2-0.7c-18.5-0.8-36.5-7.5-53.3-20.2c-5-3.7-6.2-6.7-5-14.2
				c2.2-13.5,9.5-23.2,17.9-30c11.8-9.7,25.2-17.2,39.8-20.2c9-0.8,18-3,26.9-6c11.2-4.5,24.7-4.5,37-4.5c17.4,0,35.3,1.5,52.7,3
				c1.7,0,4.5,1.5,6.7,2.2c0,8.2-1.1,15-2.2,22.5c-2.8,13.5-7.3,25.5-7.3,39.7c0,2.2-1.7,3.7-2.2,6c-1.1,3-2.3,6-2.8,9
				c-1.7,5.2-2.8,9.7-3.9,15.7C67.3-53,65.1-47,65.6-41.8c0,7.5-5.6,8.2-5,14.2l-3.4,15.7C56.7-1.3,52.7,3.9,44.3,6.9
				C32,11.4,18.5,16.6,6.2,23.4c-18.5,9-34.2,21.7-49.4,38.2c-11.2,12-21.9,26.2-30.9,42.7l-11.8,19.5c-1.7,4.5-6.2,8.2-5,15
				c0,2.2-2.3,5.2-3.4,7.5c-7.3,15.7-11.8,32.2-12.9,50.9c0,14.2,2.8,32.2,10.7,43.4c7.9,9.7,20.2,15.7,24.7,16.5
				c15.1,1.5,21.9-2.2,34.2-8.2c8.4-6.7,16.8-13.5,24.1-23.2c7.3-9,13.5-18.7,20.2-28.4c2.3-8.2,6.7-14.2,11.2-21
				c1.7-0.7,2.8-3.7,3.4-6c6.2-12.7,10.1-26.2,15.2-38.2c5-15,10.1-29.2,15.2-44.9C57.2,68.3,63.9,50.3,69,30.1
				c1.7-6,5-9.7,11.2-9.7c2.8-0.7,5.6-1.5,8.4-0.7c10.7,0,20.8,0.7,31.4,5.2c1.7,0.7,3.9,0.7,6.2,0.7L125.1,20.4z M43.2,58.6
				c-1.1,2.3-2.2,9.7-3.4,12.7c-1.1,4.5-2.2,7.5-2.8,10.5c-0.6,3-0.6,5.2-1.1,9c-2.3,3-5.6,4.5-6.2,10.5c-1.1,4.5-3.4,9-5.6,13.5
				c-1.1,3-3.4,15-5.6,16.5c-3.9,6-6.7,12-9,18C3.9,162.6-2.2,173.9-9,186.6c-4.5,9.7-21.9,38.9-42.6,47.2c-6.2,2.2-22.4,6-30.8-6.7
				c-9-13.5-6.2-29.9-1.7-45.7c2.2-10.5,8.4-21.7,10.7-33c2.8-7.5,5.6-14.2,9.5-20.2c2.8-4.5,6.2-9,7.9-14.2c3.9-7.5,9-14.2,14-20.2
				c17.4-20.2,25.2-27,34.2-34.4c7.3-7.5,16.3-12,23.6-18.7c10.1-5.2,19.1-10.5,24.7-12c2.8-0.7,6.7-2.2,10.1-2.2
				C48.8,37.6,46,49.6,43.2,58.6z"/>
		</g>
	</g>
</g>
<g>
	<g transform="translate(175.831224, 195.958353)">
		<g>
			<path class="st0" d="M293.5,300.3c12.3-5.2,20.8-15,28.6-27.7c1.1-1.5,2.8-5.2,1.7-9c-3.9,5.2-6.2,8.2-9.5,11.2
				c-9.5,9.7-18.5,11.2-32,10.5c-24.1-5.2-43.7-18.7-59.4-44.2c-11.8-21.7-22.4-46.4-30.9-71.1c-0.6-2.2-1.7-6-2.2-9
				c0.6,0,0.6,0,0.6-0.7c-2.2-6-4.5-12.7-7.3-18.7c-1.7-4.5-2.8-6.7-1.1-10.5c-2.8-4.5-4.5-8.2-5-12c1.1-9.7-3.4-18-6.2-26.9
				c15.7-6.7,30.3-16.5,43.7-24.7c14-8.2,25.2-18.7,37.6-33c11.8-13.5,24.1-29.9,31.4-50.2c3.9-10.5,7.9-21,10.1-32.2
				c3.9-24,3.9-44.2-1.1-65.9c-3.4-13.5-6.7-24-12.3-32.9c-10.7-18.7-23.6-29.9-37-39.7c-9.5-6-19.6-8.2-29.7-8.2
				c-14.6,0-29.2,0-43.8,3c-18.5,3-35.9,10.5-52.2,22.5c-15.7,11.2-30.3,24.7-44.3,39.7c-12.3,13.5-24.7,29.2-35.9,46.4
				c-3.4,6.7-6.7,12.7-9,20.2c-1.7,6-3.9,14.2-2.8,20.2c1.1,11.2,5,18.7,7.3,28.4c1.7,2.2,6.7,4.5,7.9,2.2c5.6-6,9-11.2,7.3-18.7
				c-0.6-13.5,2.3-22.5,6.7-32.2c5.1-9.7,9.5-17.2,14.6-26.2c10.1-18.7,23-30.7,35.9-44.2c1.1-0.7,2.8-0.7,3.4-1.5
				c12.9-7.5,24.1-19.5,36.5-24.7c1.7,0,2.2-1.5,3.9-3c3.9-0.7,6.2-3.7,10.7-4.5c9.5-6,20.2-6.7,31.4-7.5c8.4-3,17.4-3.7,25.8-3.7
				c16.3,0,30.8,4.5,42.6,20.2c11.2,14.2,17.9,30,21.3,49.4c3.9,32.2-2.2,59.9-14.6,85.4C262.1-12,253.7-3,249.2,9
				c0,0.8-0.6,2.2-1.1,2.2c-5,0.8-6.7,8.2-9.5,12.7c-2.8,3.7-5.1,7.5-9,10.5c-6.7,5.2-12.9,12.7-18.5,18.7c-2.8,1.5-6.7,5.2-9.5,6.7
				c-2.2,2.3-4.5,3-6.2,4.5c-7.9,9.7-17.9,15.7-29.2,19.5c-2.2-3-5.6-3.7-9-4.5c-5.6-2.2-11.8,2.2-15.1,9c-1.1,3-2.3,6-2.3,9.7
				c-0.6,2.2-0.6,5.2-0.6,6.7c6.7,24,14,48.7,24.7,71.1c0.6,0.8,1.1,4.5,1.1,7.5c5,12,9,24,14,35.2c10.7,23.2,21.9,43.4,37.6,59.9
				C239.7,300.3,265.5,310,293.5,300.3z M87.1,263.6c-11.2-21-11.2-43.4-6.7-67.4c3.4-15.7,5.6-33,8.4-46.4c1.1-9,2.3-15.7,5-22.5
				c3.9-15,7.9-26.9,12.3-40.4c11.8-32.2,23.6-64.4,33.7-95.8c7.9-20.2,14.6-38.2,21.3-59.2c3.4-6.7,5-15,7.9-21.7
				c1.7-4.5,1.7-10.5,2.2-15.7c0-8.2-5.6-16.5-11.2-16.5c-11.2-0.7-22.4,0.8-32,6c-3.4,12-0.6,20.2,1.7,27.7
				c-1.7,9-1.7,12.7-4.5,18.7C119.6-47.2,112.9-27,107.3-6c-3.4,9.7-5,17.2-8.4,24.7c-3.4,6.7-6.7,11.2-3.9,21.7
				c-1.7,10.5-4.5,18.7-9.5,28.5c0,9-5,19.5-8.4,28.4v-0.7c-1.7,15-6.7,28.4-10.7,41.2c-1.1,3.7-1.7,5.2-1.1,8.2
				c0,10.5-1.7,20.2-6.2,28.5l-5.6,29.2c0.6,4.5,1.1,8.2,1.1,11.2c0,12.7,3.9,25.5,7.3,37.4C72.5,282.3,88.8,270.3,87.1,263.6z"/>
		</g>
	</g>
</g>
</svg>
